<svg xmlns="http://www.w3.org/2000/svg" xmlns:xlink="http://www.w3.org/1999/xlink" version="1.1" id="Layer_1" x="0px" y="0px" enable-background="new 0 0 1024 1024" xml:space="preserve" viewBox="132.97 306.15 801.57 451.64">
<defs>
  <mask id="porthole-mask">
    <rect width="1024" height="1024" fill="white"/>
    <path fill="black" d=" M663.295593,543.795837  C696.296570,525.854309 715.162109,490.163849 710.523315,452.762421  C704.385559,403.275635 660.736206,367.766968 609.939514,373.158722  C550.373230,379.481262 513.300293,440.579559 534.757446,496.377502  C554.143005,546.788635 613.413635,570.254211 663.295593,543.795837 z"/>
  </mask>
</defs>
<!-- White fills for body interior areas, masked to keep porthole center transparent -->
<g mask="url(#porthole-mask)">
  <path fill="#FFFFFF" stroke="none" d=" M399.755951,371.320679  C380.609344,379.993958 362.143097,389.930634 344.283203,401.015076  C341.485718,402.751251 339.732849,404.583008 340.328827,408.205109  C341.245972,413.778931 341.776459,419.415100 342.557098,425.012848  C345.472595,445.919403 348.173706,466.860352 351.453339,487.710022  C353.452667,500.420685 351.779022,499.752167 363.846924,497.721222  C364.993896,497.528198 366.149109,497.384552 367.297424,497.198975  C392.919617,493.057770 418.533112,488.861816 444.168488,484.804077  C451.315216,483.672882 453.351807,485.469147 454.353485,492.781708  C455.458740,500.850555 456.788513,508.891754 457.738129,516.978149  C459.149475,528.996338 461.561554,532.826233 445.524536,533.549622  C445.359131,533.557068 445.196075,533.605835 445.030762,533.625916  C418.445953,536.859009 391.870270,540.171387 365.266541,543.240540  C361.058105,543.726074 359.899231,545.207397 360.606415,549.331848  C362.093842,558.007019 363.168518,566.753052 364.399750,575.471863  C366.794220,592.428101 369.221619,609.379944 371.537842,626.346924  C372.074646,630.279114 373.686371,632.220032 377.961853,633.036133  C405.985352,638.385254 434.273926,641.412659 462.732330,642.493225  C494.557617,643.701660 526.345764,642.325195 557.971497,638.486267  C595.551514,633.924500 632.505920,626.270264 668.664062,614.954590  C734.390808,594.385376 795.054382,564.292114 847.631958,519.201477  C877.371033,493.697113 902.355652,464.248718 920.678223,429.389557  C922.573242,425.784332 922.294434,423.675232 919.114380,420.985321  C894.540466,400.198975 867.659912,383.034882 838.616943,369.240936  C772.778137,337.970795 702.940369,324.559784 630.511047,323.528931  C600.021362,323.094971 569.640564,325.502716 539.457703,330.214417  C491.318085,337.729309 444.882874,350.943542 399.755951,371.320679 z"/>
  <path fill="#FFFFFF" stroke="none" d=" M305.499939,317.275482  C263.374847,317.284241 190.477570,331.549255 176.236969,342.542847  C180.014328,342.542847 183.852264,342.747223 187.662659,342.509766  C212.989075,340.931458 238.303680,341.395050 263.515503,343.940338  C297.152161,347.336151 328.463226,358.101837 357.421631,375.569000  C360.240479,377.269287 362.474121,377.779510 365.625305,376.020020  C384.275269,365.606537 403.791260,357.033234 423.705322,349.346405  C426.122253,348.413483 428.516815,347.422607 432.196014,345.947784  C391.526093,326.730621 350.065430,317.443024 305.499939,317.275482 z"/>
  <path fill="#FFFFFF" stroke="none" d=" M426.650146,651.194214  C424.671509,650.927673 422.699707,650.583801 420.713074,650.407654  C411.371277,649.579468 411.400269,649.611511 407.124664,657.967468  C399.171783,673.509766 389.639343,687.880981 376.002533,699.113220  C357.719055,714.172913 336.524475,723.714783 314.326691,731.247681  C295.284363,737.709778 275.780975,742.431519 255.029510,745.965942  C256.360352,746.369263 256.758240,746.592529 257.158234,746.596375  C279.965546,746.816467 302.748871,746.833862 325.447235,743.865173  C364.215851,738.794678 400.864166,727.441650 434.398224,707.091919  C454.402222,694.952820 471.957672,680.031677 483.898254,659.419128  C484.744965,657.957520 486.360321,656.596680 485.291779,654.273499  C466.076599,653.384583 446.777557,653.114014 426.650146,651.194214 z"/>
  <path fill="#FFFFFF" stroke="none" d=" M231.525650,530.216248  C217.067398,532.538696 202.623154,534.953064 188.146744,537.156189  C175.176361,539.130188 176.653305,538.035583 178.329193,550.171692  C178.351959,550.336670 178.363312,550.503235 178.376617,550.669373  C178.603104,553.494629 179.752609,554.698975 182.920807,554.290283  C196.455200,552.544434 210.027298,551.093567 223.574219,549.441528  C257.930115,545.252075 292.276062,540.980713 326.633148,536.801025  C365.451111,532.078552 404.273956,527.395935 443.105530,522.787109  C445.838135,522.462769 447.081116,521.497864 446.680969,518.721008  C445.755951,512.302002 444.803650,505.886505 443.952362,499.457672  C443.609802,496.870728 442.351471,496.166992 439.842133,496.618408  C433.620636,497.737701 427.364868,498.666748 421.123108,499.673401  C382.684448,505.872772 344.246338,512.075806 305.806946,518.270691  C281.334412,522.214722 256.859955,526.146790 231.525650,530.216248 z"/>
  <path fill="#FFFFFF" stroke="none" d=" M344.042450,625.362244  C349.793976,626.530640 355.365875,628.696594 361.460632,629.101074  C361.460632,627.824402 361.550415,627.153442 361.447540,626.513611  C359.152344,612.238953 356.770447,597.977966 354.544556,583.692627  C352.804565,572.525818 351.295532,561.323059 349.583954,550.151611  C349.218292,547.764893 349.134277,545.190125 345.161560,545.738220  C331.159760,547.669922 317.136017,549.499756 303.074615,550.910034  C298.271851,551.391724 297.710297,553.678772 298.389709,557.487854  C301.541534,575.157776 304.736206,592.820435 307.766022,610.511292  C308.291046,613.576660 309.737549,615.063660 312.668274,615.908813  C322.899872,618.859436 333.069275,622.025818 344.042450,625.362244 z"/>
  <path fill="#FFFFFF" stroke="none" d=" M327.426544,412.321259  C316.483795,419.643616 306.506256,428.233398 296.012115,436.131531  C289.910034,440.724121 288.762085,445.900360 289.488556,452.879028  C291.071075,468.080627 292.104462,483.339996 293.304535,498.580292  C293.562592,501.857513 293.473724,505.174103 295.212952,508.644287  C310.180054,506.265564 325.092377,503.935638 339.986938,501.497620  C343.324066,500.951385 342.843811,498.380890 342.389984,496.009216  C337.421875,470.045380 334.044891,443.844025 330.582825,417.652924  C330.321045,415.672607 331.033569,412.904724 327.426544,412.321259 z"/>
</g>
<!-- Black outline paths (original traced artwork) -->
<path fill="#000000" opacity="1.000000" stroke="none" d=" M734.981262,602.071411  C684.326843,624.317505 631.855591,638.941895 577.582520,647.017517  C552.892944,650.691345 528.042114,653.220581 503.021393,653.388428  C500.545685,653.405029 498.140747,653.125061 496.857269,656.274353  C487.299072,679.727112 469.795319,696.343811 449.555206,710.452454  C421.959381,729.688599 391.033356,741.211731 358.628021,749.264465  C332.097595,755.857239 305.048096,757.890503 277.876160,757.781006  C249.238876,757.665710 220.630096,756.234558 192.307831,751.418640  C187.336746,750.573425 184.557632,748.064514 185.400421,744.663513  C186.457230,740.398865 189.705368,739.732727 193.599564,740.112793  C205.948410,741.318115 218.249298,739.919067 230.445526,738.483093  C259.280792,735.088074 287.582153,728.972595 314.997711,719.284485  C335.362427,712.088013 354.846222,703.066284 371.221771,688.552246  C383.647369,677.539062 392.114075,663.697205 399.286407,648.468201  C394.472595,646.477661 389.629242,646.290344 384.986237,645.496948  C357.850342,640.859985 331.300171,634.013428 305.266693,625.085999  C301.072479,623.647705 299.095673,621.411621 298.295959,616.651733  C294.962097,596.808533 290.888702,577.090637 287.276062,557.292175  C286.639343,553.802979 284.982727,552.965332 281.807404,553.364380  C261.835419,555.874084 241.855774,558.323425 221.876968,560.778809  C207.013550,562.605469 192.155258,564.477905 177.278732,566.191589  C171.678741,566.836731 169.034058,564.957336 168.142426,559.458008  C166.865479,551.582214 165.861526,543.654419 165.015503,535.719543  C164.562378,531.469727 167.184250,529.280396 171.147308,528.632996  C183.461136,526.621643 195.785217,524.673157 208.102554,522.683044  C231.749252,518.862488 255.381012,514.945557 279.052673,511.286774  C282.944275,510.685303 284.055573,509.036285 283.687653,505.375580  C281.791779,486.511749 280.205841,467.614349 278.078918,448.777527  C277.314453,442.006836 278.206818,436.906677 283.874359,432.071411  C303.068542,415.695709 323.294220,400.826569 344.802185,387.667145  C346.333679,386.730133 348.175476,386.157349 349.555908,383.685913  C344.793030,381.105225 340.136261,378.329651 335.270782,375.987671  C308.556000,363.128479 280.486420,355.570831 250.768875,354.136810  C213.611404,352.343750 176.533249,352.419312 139.617691,357.682800  C136.401993,358.141296 134.340546,357.121643 133.361847,354.217194  C132.237625,350.880890 133.586426,348.185303 136.585144,346.690948  C142.694138,343.646606 148.843338,340.645630 155.141357,338.024139  C185.983704,325.186249 217.606430,315.086975 250.807129,310.234100  C308.797943,301.757629 365.365021,305.812561 419.904327,328.647308  C427.590210,331.865265 435.122955,335.460968 442.010651,340.207275  C443.891327,341.503204 445.507416,341.542358 447.579529,340.850067  C478.765717,330.430695 510.681458,323.099274 543.212952,318.392853  C581.234436,312.892181 619.394653,311.429810 657.769958,313.500671  C695.666138,315.545715 732.870605,321.525909 769.380188,331.712128  C825.382141,347.336639 876.960815,371.811401 922.034668,409.057922  C924.602722,411.179993 927.092224,413.398376 929.590088,415.603882  C935.272705,420.621552 935.846497,423.484253 932.412842,430.480804  C923.789307,448.052521 913.209961,464.390045 901.036987,479.694916  C867.647888,521.674438 826.073181,553.751587 779.599365,579.871338  C765.212585,587.957214 750.425537,595.252014 734.981262,602.071411 M399.755951,371.320679  C380.609344,379.993958 362.143097,389.930634 344.283203,401.015076  C341.485718,402.751251 339.732849,404.583008 340.328827,408.205109  C341.245972,413.778931 341.776459,419.415100 342.557098,425.012848  C345.472595,445.919403 348.173706,466.860352 351.453339,487.710022  C353.452667,500.420685 351.779022,499.752167 363.846924,497.721222  C364.993896,497.528198 366.149109,497.384552 367.297424,497.198975  C392.919617,493.057770 418.533112,488.861816 444.168488,484.804077  C451.315216,483.672882 453.351807,485.469147 454.353485,492.781708  C455.458740,500.850555 456.788513,508.891754 457.738129,516.978149  C459.149475,528.996338 461.561554,532.826233 445.524536,533.549622  C445.359131,533.557068 445.196075,533.605835 445.030762,533.625916  C418.445953,536.859009 391.870270,540.171387 365.266541,543.240540  C361.058105,543.726074 359.899231,545.207397 360.606415,549.331848  C362.093842,558.007019 363.168518,566.753052 364.399750,575.471863  C366.794220,592.428101 369.221619,609.379944 371.537842,626.346924  C372.074646,630.279114 373.686371,632.220032 377.961853,633.036133  C405.985352,638.385254 434.273926,641.412659 462.732330,642.493225  C494.557617,643.701660 526.345764,642.325195 557.971497,638.486267  C595.551514,633.924500 632.505920,626.270264 668.664062,614.954590  C734.390808,594.385376 795.054382,564.292114 847.631958,519.201477  C877.371033,493.697113 902.355652,464.248718 920.678223,429.389557  C922.573242,425.784332 922.294434,423.675232 919.114380,420.985321  C894.540466,400.198975 867.659912,383.034882 838.616943,369.240936  C772.778137,337.970795 702.940369,324.559784 630.511047,323.528931  C600.021362,323.094971 569.640564,325.502716 539.457703,330.214417  C491.318085,337.729309 444.882874,350.943542 399.755951,371.320679 M305.499939,317.275482  C263.374847,317.284241 190.477570,331.549255 176.236969,342.542847  C180.014328,342.542847 183.852264,342.747223 187.662659,342.509766  C212.989075,340.931458 238.303680,341.395050 263.515503,343.940338  C297.152161,347.336151 328.463226,358.101837 357.421631,375.569000  C360.240479,377.269287 362.474121,377.779510 365.625305,376.020020  C384.275269,365.606537 403.791260,357.033234 423.705322,349.346405  C426.122253,348.413483 428.516815,347.422607 432.196014,345.947784  C391.526093,326.730621 350.065430,317.443024 305.499939,317.275482 M426.650146,651.194214  C424.671509,650.927673 422.699707,650.583801 420.713074,650.407654  C411.371277,649.579468 411.400269,649.611511 407.124664,657.967468  C399.171783,673.509766 389.639343,687.880981 376.002533,699.113220  C357.719055,714.172913 336.524475,723.714783 314.326691,731.247681  C295.284363,737.709778 275.780975,742.431519 255.029510,745.965942  C256.360352,746.369263 256.758240,746.592529 257.158234,746.596375  C279.965546,746.816467 302.748871,746.833862 325.447235,743.865173  C364.215851,738.794678 400.864166,727.441650 434.398224,707.091919  C454.402222,694.952820 471.957672,680.031677 483.898254,659.419128  C484.744965,657.957520 486.360321,656.596680 485.291779,654.273499  C466.076599,653.384583 446.777557,653.114014 426.650146,651.194214 M231.525650,530.216248  C217.067398,532.538696 202.623154,534.953064 188.146744,537.156189  C175.176361,539.130188 176.653305,538.035583 178.329193,550.171692  C178.351959,550.336670 178.363312,550.503235 178.376617,550.669373  C178.603104,553.494629 179.752609,554.698975 182.920807,554.290283  C196.455200,552.544434 210.027298,551.093567 223.574219,549.441528  C257.930115,545.252075 292.276062,540.980713 326.633148,536.801025  C365.451111,532.078552 404.273956,527.395935 443.105530,522.787109  C445.838135,522.462769 447.081116,521.497864 446.680969,518.721008  C445.755951,512.302002 444.803650,505.886505 443.952362,499.457672  C443.609802,496.870728 442.351471,496.166992 439.842133,496.618408  C433.620636,497.737701 427.364868,498.666748 421.123108,499.673401  C382.684448,505.872772 344.246338,512.075806 305.806946,518.270691  C281.334412,522.214722 256.859955,526.146790 231.525650,530.216248 M344.042450,625.362244  C349.793976,626.530640 355.365875,628.696594 361.460632,629.101074  C361.460632,627.824402 361.550415,627.153442 361.447540,626.513611  C359.152344,612.238953 356.770447,597.977966 354.544556,583.692627  C352.804565,572.525818 351.295532,561.323059 349.583954,550.151611  C349.218292,547.764893 349.134277,545.190125 345.161560,545.738220  C331.159760,547.669922 317.136017,549.499756 303.074615,550.910034  C298.271851,551.391724 297.710297,553.678772 298.389709,557.487854  C301.541534,575.157776 304.736206,592.820435 307.766022,610.511292  C308.291046,613.576660 309.737549,615.063660 312.668274,615.908813  C322.899872,618.859436 333.069275,622.025818 344.042450,625.362244 M327.426544,412.321259  C316.483795,419.643616 306.506256,428.233398 296.012115,436.131531  C289.910034,440.724121 288.762085,445.900360 289.488556,452.879028  C291.071075,468.080627 292.104462,483.339996 293.304535,498.580292  C293.562592,501.857513 293.473724,505.174103 295.212952,508.644287  C310.180054,506.265564 325.092377,503.935638 339.986938,501.497620  C343.324066,500.951385 342.843811,498.380890 342.389984,496.009216  C337.421875,470.045380 334.044891,443.844025 330.582825,417.652924  C330.321045,415.672607 331.033569,412.904724 327.426544,412.321259 z"/>
<path fill="#000000" opacity="1.000000" stroke="none" d=" M652.917847,366.883087  C691.290161,381.373138 714.214050,408.647461 720.948364,448.548706  C729.977783,502.049194 692.193420,554.658264 638.798340,564.226562  C584.359253,573.981934 533.277710,540.619873 520.256775,486.805450  C506.348969,429.325745 546.153015,370.894226 604.775391,362.554565  C621.071533,360.236267 636.963928,361.433350 652.917847,366.883087 M663.295593,543.795837  C696.296570,525.854309 715.162109,490.163849 710.523315,452.762421  C704.385559,403.275635 660.736206,367.766968 609.939514,373.158722  C550.373230,379.481262 513.300293,440.579559 534.757446,496.377502  C554.143005,546.788635 613.413635,570.254211 663.295593,543.795837 z"/>
</svg>